<svg xmlns="http://www.w3.org/2000/svg" width="200" viewBox="0 0 200.67 37">
  <g id="Grupo_7218" data-name="Grupo 7218" transform="translate(13348.931 10653.497)">
    <path id="Caminho_7014" data-name="Caminho 7014"
      d="M354.5-15.345h-9.016v2.41a1.391,1.391,0,0,0,1.389,1.389h5.019V-10.3a7.248,7.248,0,0,1-6.755,3.714,7.2,7.2,0,0,1-7.476-7.57c0-4.438,3.01-7.537,7.321-7.537a7.181,7.181,0,0,1,6.043,3.082l.187.287,4.464-1.185-.3-.531a11.789,11.789,0,0,0-10.4-6.019,11.864,11.864,0,0,0-8.4,3.367,11.85,11.85,0,0,0-3.474,8.536,11.851,11.851,0,0,0,3.474,8.538,11.869,11.869,0,0,0,8.4,3.367c.093,0,.187,0,.262,0h.124l.145-.006a11.829,11.829,0,0,0,7.116-2.679,11.327,11.327,0,0,0,3.144-4.106l.042-.093v-4.818a1.39,1.39,0,0,0-1.317-1.388"
      transform="translate(-13597.429 -10621.044)" fill="#000"></path>
    <path id="Caminho_7015" data-name="Caminho 7015"
      d="M383.4-6.275c-4.309,0-7.32-3.1-7.32-7.538s3.01-7.539,7.32-7.539c4.327,0,7.35,3.1,7.35,7.539s-3.023,7.538-7.35,7.538m0-19.442a11.864,11.864,0,0,0-8.4,3.366,11.851,11.851,0,0,0-3.474,8.538,11.85,11.85,0,0,0,3.474,8.536,11.869,11.869,0,0,0,8.4,3.366,11.921,11.921,0,0,0,8.413-3.365,11.833,11.833,0,0,0,3.489-8.538,11.832,11.832,0,0,0-3.489-8.539,11.916,11.916,0,0,0-8.413-3.365"
      transform="translate(-13590.724 -10620.984)" fill="#000"></path>
    <path id="Caminho_7016" data-name="Caminho 7016"
      d="M391.81-23.953v2.819h7.066V-2.416H403.3V-21.134h5.742a1.39,1.39,0,0,0,1.388-1.389v-2.819H393.2a1.391,1.391,0,0,0-1.389,1.389"
      transform="translate(-13587.185 -10620.919)" fill="#000"></path>
    <path id="Caminho_7017" data-name="Caminho 7017"
      d="M410.714-23.953V-2.416h3.04A1.389,1.389,0,0,0,415.142-3.8V-25.342H412.1a1.391,1.391,0,0,0-1.388,1.389"
      transform="translate(-13583.886 -10620.919)" fill="#000"></path>
    <path id="Caminho_7018" data-name="Caminho 7018"
      d="M427.149-16.051q-.4-.13-.793-.254c-2.4-.767-4.475-1.427-4.475-2.91,0-1.876,1.916-2.544,3.708-2.544a4.288,4.288,0,0,1,4.406,3.455l.1.492,3-.822a1.388,1.388,0,0,0,.929-1.311,1.369,1.369,0,0,0-.073-.443c-.006-.019-.012-.035-.019-.053s-.016-.042-.026-.062a8.561,8.561,0,0,0-8.192-5.214c-4.745,0-8.324,2.848-8.324,6.627,0,4.229,3.937,5.558,6.292,6.353.35.113.707.226,1.064.337,2.71.848,5.27,1.647,5.27,3.612,0,1.647-1.627,2.8-3.957,2.8a4.8,4.8,0,0,1-5.032-3.9l-.079-.521-3.191.874a1.328,1.328,0,0,0-.826,1.271,1.6,1.6,0,0,0,.11.54,8.938,8.938,0,0,0,8.829,5.822c5.1,0,8.667-2.894,8.667-7.035,0-4.74-4.273-6.109-7.39-7.107"
      transform="translate(-13582.8 -10620.984)" fill="#000"></path>
    <path id="Caminho_7019" data-name="Caminho 7019"
      d="M324.486-18.467l3.52,7.258h-7.04Zm1.455-6.874h-2.91L311.765-2.415h4.041a1.4,1.4,0,0,0,1.252-.783l1.734-3.567a.452.452,0,0,1,.4-.235h10.6a.451.451,0,0,1,.337.154l1.831,3.724a1.391,1.391,0,0,0,1.211.707h4.045L326.071-25.079Z"
      transform="translate(-13601.153 -10620.919)" fill="#000"></path>
    <path id="Caminho_7020" data-name="Caminho 7020"
      d="M372.065-17.8c0-4.649-3.418-7.537-8.92-7.537h-6.273a1.39,1.39,0,0,0-1.389,1.388V-3.8a1.391,1.391,0,0,0,1.389,1.389h3.038V-21.134h3.645c2.515,0,3.957,1.214,3.957,3.33s-1.442,3.33-3.957,3.33h-2.681L367.927-3.1c.009.015.018.029.027.043a1.383,1.383,0,0,0,1.169.638h4.231l-5.464-8.762a6.885,6.885,0,0,0,4.175-6.628"
      transform="translate(-13593.524 -10620.919)" fill="#000"></path>
    <path id="Caminho_7021" data-name="Caminho 7021"
      d="M291.432-8.008q.287-.521.576-1.043a2.2,2.2,0,0,1,1.925-1.137h12.161s0,0,0,0q-1.788-3.243-3.578-6.486H290.751a2.151,2.151,0,0,0-1.885,1.113l-.588,1.066-.585,1.061a2.166,2.166,0,0,1-1.9,1.12H267.468s0,0,0,0L263.889-5.83s0,0,0,0h25.085a2.123,2.123,0,0,0,1.86-1.1q.3-.539.6-1.081"
      transform="translate(-13609.508 -10619.407)" fill="#037662"></path>
    <path id="Caminho_7022" data-name="Caminho 7022"
      d="M285.932-15.382l.588-1.068a2.152,2.152,0,0,1,1.885-1.112H300.6s0,0,0,0Q298.8-20.833,297-24.1H285.252a2.179,2.179,0,0,0-1.907,1.126q-.291.527-.58,1.054l-.587,1.065a2.16,2.16,0,0,1-1.89,1.116h-8.723q-1.8,3.27-3.606,6.538s0,0,0,0h15.487a2.169,2.169,0,0,0,1.9-1.123l.584-1.057"
      transform="translate(-13608.798 -10620.703)" fill="#037662"></path>
    <path id="Caminho_7023" data-name="Caminho 7023"
      d="M280.414-22.813l.579-1.051a2.185,2.185,0,0,1,1.913-1.129h12.132a.024.024,0,0,0,.021-.035l-2.945-5.338a2.2,2.2,0,0,0-1.926-1.137H279.335a2.18,2.18,0,0,0-1.91,1.128q-2.678,4.854-5.355,9.708a.023.023,0,0,0,.021.034h5.834a2.176,2.176,0,0,0,1.907-1.126l.581-1.054"
      transform="translate(-13608.081 -10621.994)" fill="#037662"></path>
    <path id="Caminho_7024" data-name="Caminho 7024"
      d="M312.029-1.615,307.792-9.3H296.079a2.232,2.232,0,0,0-1.954,1.153l-.566,1.027q-.3.539-.593,1.076a2.136,2.136,0,0,1-1.87,1.1H263.177a0,0,0,0,0,0,0l-1.832,3.323a2.178,2.178,0,0,0,1.907,3.23l46.865,0a2.183,2.183,0,0,0,1.912-3.237"
      transform="translate(-13610 -10618.119)" fill="#037662"></path>
  </g>
</svg>